{"title":"ABCD 2 2015 Hindi Movies Non Retail DVDRip x264 AAC +Sample â˜»rDX","uid":12040598,"size":740351995,"categoryP":"video","categoryS":"movies","magnet":"?xt=urn:btih:10edfe4486d0884991a625975129de34b2def672&amp;dn=ABCD+2+2015+Hindi+Movies+Non+Retail+DVDRip+x264+AAC+%2BSample+%E2%98%BBrDX&amp;tr=udp%3A%2F%2Ftracker.openbittorrent.com%3A80&amp;tr=udp%3A%2F%2Fopen.demonii.com%3A1337&amp;tr=udp%3A%2F%2Ftracker.coppersurfer.tk%3A6969&amp;tr=udp%3A%2F%2Fexodus.desync.com%3A6969","seeders":16,"leechers":6,"uploader":"basicssom","files":2,"time":1434777459,"description":"----------------------------------------------------------------\nABCD 2 2015 Hindi Movies Non Retail DVDRip x264 AAC with Sample ~ â˜»rDXâ˜»\n\nSCREEN SHOTS &amp; POSTER:\n &lt;a href=&quot;\nhttp://imagehosting4u.com/2015/6/ABCD2nd/11.html&quot; rel=&quot;nofollow&quot; target=&quot;_NEW&quot;&gt;\nhttp://imagehosting4u.com/2015/6/ABCD2nd/11.html&lt;/a&gt; &lt;a href=&quot;\nhttp://imagehosting4u.com/2015/6/ABCD2nd/1.html&quot; rel=&quot;nofollow&quot; target=&quot;_NEW&quot;&gt;\nhttp://imagehosting4u.com/2015/6/ABCD2nd/1.html&lt;/a&gt; &lt;a href=&quot;\nhttp://imagehosting4u.com/2015/6/ABCD2nd/2.html&quot; rel=&quot;nofollow&quot; target=&quot;_NEW&quot;&gt;\nhttp://imagehosting4u.com/2015/6/ABCD2nd/2.html&lt;/a&gt; &lt;a href=&quot;\nhttp://imagehosting4u.com/2015/6/ABCD2nd/3.html&quot; rel=&quot;nofollow&quot; target=&quot;_NEW&quot;&gt;\nhttp://imagehosting4u.com/2015/6/ABCD2nd/3.html&lt;/a&gt; &lt;a href=&quot;\nhttp://imagehosting4u.com/2015/6/ABCD2nd/4.html&quot; rel=&quot;nofollow&quot; target=&quot;_NEW&quot;&gt;\nhttp://imagehosting4u.com/2015/6/ABCD2nd/4.html&lt;/a&gt; &lt;a href=&quot;\nhttp://imagehosting4u.com/2015/6/ABCD2nd/5.html&quot; rel=&quot;nofollow&quot; target=&quot;_NEW&quot;&gt;\nhttp://imagehosting4u.com/2015/6/ABCD2nd/5.html&lt;/a&gt; &lt;a href=&quot;\nhttp://imagehosting4u.com/2015/6/ABCD2nd/6.html&quot; rel=&quot;nofollow&quot; target=&quot;_NEW&quot;&gt;\nhttp://imagehosting4u.com/2015/6/ABCD2nd/6.html&lt;/a&gt; &lt;a href=&quot;\nhttp://imagehosting4u.com/2015/6/ABCD2nd/7.html&quot; rel=&quot;nofollow&quot; target=&quot;_NEW&quot;&gt;\nhttp://imagehosting4u.com/2015/6/ABCD2nd/7.html&lt;/a&gt; &lt;a href=&quot;\nhttp://imagehosting4u.com/2015/6/ABCD2nd/8.html&quot; rel=&quot;nofollow&quot; target=&quot;_NEW&quot;&gt;\nhttp://imagehosting4u.com/2015/6/ABCD2nd/8.html&lt;/a&gt; &lt;a href=&quot;\nhttp://imagehosting4u.com/2015/6/ABCD2nd/9.html&quot; rel=&quot;nofollow&quot; target=&quot;_NEW&quot;&gt;\nhttp://imagehosting4u.com/2015/6/ABCD2nd/9.html&lt;/a&gt; &lt;a href=&quot;\nhttp://imagehosting4u.com/2015/6/ABCD2nd/10.html&quot; rel=&quot;nofollow&quot; target=&quot;_NEW&quot;&gt;\nhttp://imagehosting4u.com/2015/6/ABCD2nd/10.html&lt;/a&gt;\n\nFormat                                   : Matroska\nFormat version                           : Version 4 / Version 2\nFile size                                : 699 MiB\nDuration                                 : 2h 24mn\nOverall bit rate                         : 677 Kbps\nMovie name                               : ABCD 2 2015 Hindi Movies Non Retail DVDRip x264 AAC ~ rDX ~\n\nVideo\nID                                       : 1\nFormat                                   : AVC\nFormat/Info                              : Advanced Video Codec\nFormat profile                           : &lt;a class=&quot;__cf_email__&quot; href=&quot;/cdn-cgi/l/email-protection&quot; data-cfemail=&quot;0840616f6048443c2639&quot;&gt;[email&amp;#160;protected]&lt;/a&gt;&lt;script data-cfhash='f9e31' type=&quot;text/javascript&quot;&gt;\n/* &lt;![CDATA[ */!function(){try{var t=&quot;currentScript&quot;in document?document.currentScript:function(){for(var t=document.getElementsByTagName(&quot;script&quot;),e=t.length;e--;)if(t[e].getAttribute(&quot;data-cfhash&quot;))return t[e]}();if(t&amp;&amp;t.previousSibling){var e,r,n,i,c=t.previousSibling,a=c.getAttribute(&quot;data-cfemail&quot;);if(a){for(e=&quot;&quot;,r=parseInt(a.substr(0,2),16),n=2;a.length-n;n+=2)i=parseInt(a.substr(n,2),16)^r,e+=String.fromCharCode(i);e=document.createTextNode(e),c.parentNode.replaceChild(e,c)}t.parentNode.removeChild(t);}}catch(u){}}()/* ]]&gt; */&lt;/script&gt;\nFormat settings, CABAC                   : Yes\nFormat settings, ReFrames                : 4 frames\nCodec ID                                 : V_MPEG4/ISO/AVC\nDuration                                 : 2h 24mn\nBit rate                                 : 611 Kbps\nWidth                                    : 640 pixels\nHeight                                   : 272 pixels\nDisplay aspect ratio                     : 2.35:1\nFrame rate mode                          : Constant\nFrame rate                               : 25.000 fps\nColor space                              : YUV\nChroma subsampling                       : 4:2:0\nBit depth                                : 8 bits\nScan type                                : Progressive\nBits/(Pixel*Frame)                       : 0.140\nStream size                              : 619 MiB (89%)\nTitle                                    : ~ rDX ~\nWriting library                          : x264\nLanguage                                 : Hindi\nDefault                                  : Yes\nForced                                   : No\n\nAudio\nID                                       : 2\nFormat                                   : MPEG Audio\nFormat version                           : Version 2\nFormat profile                           : Layer 3\nMode                                     : Joint stereo\nMode extension                           : MS Stereo\nCodec ID                                 : A_MPEG/L3\nCodec ID/Hint                            : MP3\nDuration                                 : 2h 24mn\nBit rate mode                            : Constant\nBit rate                                 : 64.0 Kbps\nChannel(s)                               : 2 channels\nSampling rate                            : 24.0 KHz\nCompression mode                         : Lossy\nStream size                              : 66.1 MiB (9%)\nTitle                                    : ~ rDX ~\nWriting library                          : LAME3.99r\nEncoding settings                        : -m j -V 4 -q 2 -lowpass 11 -b 64\nLanguage                                 : Hindi\nDefault                                  : Yes\nForced                                   : No","torrent":{"xt":"urn:btih:10edfe4486d0884991a625975129de34b2def672","amp;dn":"ABCD+2+2015+Hindi+Movies+Non+Retail+DVDRip+x264+AAC+%2BSample+%E2%98%BBrDX","amp;tr":["udp%3A%2F%2Ftracker.openbittorrent.com%3A80","udp%3A%2F%2Fopen.demonii.com%3A1337","udp%3A%2F%2Ftracker.coppersurfer.tk%3A6969","udp%3A%2F%2Fexodus.desync.com%3A6969"],"infoHash":"10edfe4486d0884991a625975129de34b2def672","infoHashBuffer":{"type":"Buffer","data":[16,237,254,68,134,208,136,73,145,166,37,151,81,41,222,52,178,222,246,114]},"announce":[],"urlList":[]}}